<?xml version="1.0" encoding="UTF-8"?>
<svg id="Layer_1" xmlns="http://www.w3.org/2000/svg" version="1.1" viewBox="0 0 518.43 171.72">
  <!-- Generator: Adobe Illustrator 30.2.1, SVG Export Plug-In . SVG Version: 2.1.1 Build 1)  -->
  <path d="M501.58,66.33l2.47,1.12,4.62,5.63s4.16,0,4.16-5.85c0-2.7-5.85-7.65-10.58-7.65-2.43.21-4.84.62-7.2,1.23l-2.93.68-3.6,3.38s-2.25,3.6-2.25,10.35c0,5.52,4.16,5.29,11.82,11.93,3.15,2.7,4.84,4.84,4.84,7,0,5.07-7.09,10-11,10-1.92,0-6.76-1.8-6.76-1.8l-2.7-.11-4.95-2.71h-2.62l-2.59-.53s-2.48,1.24-2.48,2.36c0,2.59,2.26,5,4.06,6,5.74,2.7,12.6,4.84,17.33,4.84,3.07.04,6.06-.9,8.55-2.7l6.08-3.38,1-2.81s2.13-3,2.13-8.78c-.22-2.04-.55-4.07-1-6.08l-1.91-5.06-2.59-1.24-1.57-2.15-6.53-3c-1.57-.71-2.58-2.28-2.58-4,0-6,8.78-6.67,8.78-6.67Z"/>
  <path d="M229.37,26.1c-1.24,0-2.7,1.91-2.7,1.91l-2,1.35-1.35,2.93s-1.35,2.7-2.47,4.61c-3.15,5.29-10.81,12-10.81,12l-2.7.79s-1.24,2-3.15,2c-1.69,0-3.49-5.07-5.4-8.56-5.21-10.13-10.79-16.81-12.86-16.81-2.82,0-3.72,4.17-3.72,4.17l.56,2.92,2,1.35,1.69,2.7s6.86,9,10,17.22c2.13,5.86,6.52,11.94,8.89,11.94,1.24-.27,2.35-.94,3.15-1.92l2.93-4.05,1.35-1.24,1.91-2.92,2.98-3.49,1.57-2.59,4.28-5.85c7.65-10.25,8.55-11.71,8.55-14.75,0-2.03-1.01-3.71-2.7-3.71Z"/>
  <path d="M210.24,93.06c-2.44.21-4.86.62-7.24,1.23l-2.92.68-3.6,3.38s-2.26,3.6-2.26,10.35c0,5.52,4.17,5.29,11.82,11.93,3.15,2.7,4.84,4.84,4.84,7,0,5.07-7.09,10-11,10-1.91,0-6.75-1.8-6.75-1.8l-2.7-.11-5-2.71h-2.58l-2.59-.56s-2.48,1.24-2.48,2.37c0,2.58,2.25,5,4.05,6,5.74,2.7,12.61,4.84,17.34,4.84,3.07.04,6.06-.9,8.55-2.7l6.08-3.38,1-2.81s2.14-3,2.14-8.78c-.22-2.04-.55-4.07-1-6.08l-1.92-5.06-2.58-1.24-1.58-2.14-6.53-3c-1.57-.71-2.59-2.27-2.59-4,0-5.86,8.78-6.53,8.78-6.53l2.48,1.12,4.61,5.63s4.17,0,4.17-5.85c.04-2.84-5.78-7.78-10.54-7.78Z"/>
  <path d="M358.84,7.87l-1.24-1.87-3.83-1.8-2.25-1.5c-1.37-.35-2.76-.58-4.16-.7-11.82,0-21.28,12.83-21.28,21.72,0,4.84,2.82,10.58,2.82,10.58l2.7,5,2.93,1.35c4.88,2.99,10.48,4.62,16.2,4.73,5.41,0,19-11.6,19-20.83.03-7.22-10.89-16.68-10.89-16.68ZM363.23,24.53c.09.41.13.82.11,1.24,0,6.53-9.79,10.92-14.29,10.92-6.53,0-16.78-4.5-16.78-11.82,0-12.16,14.75-14.63,14.75-14.63l2.98,1.12,4.72,1.24,3.83,4.73,1.8.9,2,2.14.88,4.16Z"/>
  <path d="M355.35,70.76l-6.87-2s-7.65-3.26-9-3.26c-5.18,0-8.67,2-12.05,6.08l-3.6,3.82-.67,1.47-1.47,1.46-1,5.4,1.13,6.64,4.61,6.53c.68.56,5.63,4.84,5.63,7.09v.23l-.79,4.84.11,2.7-.79,4.39.12,3-.45,3.94-8.56,4.39c-8.1,2.7-12.49,9-12.49,18.68.08,2.44.46,4.85,1.12,7.2l.79,3.83,7,6.31c4.91,3.97,11.03,6.15,17.34,6.19,15,0,24.08-6.87,24.08-19.25,0-8.67-2.7-11.71-13.62-20.71-1.06-1.04-2.06-2.13-3-3.27l-2.25-.9c-1.74-.54-2.89-2.18-2.81-4l-.45-7.2v-1.13c0-4.28,1-8.66,3.94-8.66h.22l9.12.78h.11c1.24,0,3.72-1.46,4.84-2,1.43-.41,2.79-1.02,4.06-1.8l3.6-5c.6-.85.87-1.88.79-2.92v-1.15c-.09-10.02-4.01-20.37-8.74-21.72ZM351.18,145.61v3.15l.9,3.83c.1.29.14.6.12.9,0,4.5-8.11,9-14.75,9-5.27,0-10.43-1.53-14.86-4.39-4.95-2.81-6.3-11.14-6.64-13l.9-3.83c.68-.79,3.49-3.15,3.49-3.27l1.58-1.57c.67-.56,7.65-4.95,11.37-4.95s17.78,10.86,17.89,14.13ZM347.02,97.61c-9.79,0-17.67-7-17.67-13.62,0-4.05,4.84-11.14,8.66-11.14.39.02.77.09,1.13.22l1.8.56,2.48,1.13,2.81-.34,1.77.58c4.62,1.24,8.56,7.43,8.56,13.51.03,5.49-3.24,9.15-9.56,9.15l.02-.05Z"/>
  <path d="M423.89,68.19c.68,0,3,.22,3,.22l3-2.47,3.11-1.94c1.97-2.9,3.64-5.98,5-9.21,2.36-5.85,4.39-6.75,4.39-9.34v-.22l-.11-2.93,1.24-3.94-.34-3.49s-.9-1.35-1.58-2.25-.9-2.25-2.25-2.48c-.11,0-.34-.11-.45-.11-1.8,0-3.26,3-3.26,3.71l-.12,10.36-1.61,5.9-3.38,3.38s-1.24,6.53-6.75,6.53c-1.64-.08-3.21-.67-4.5-1.69l-2.14-2.93-1.47-1.68s-2.7-6.2-2.7-7.1l.34-15.64c0-1.35-1.24-2-2.59-2-3.6-.08-3.72,4.13-3.72,4.13l-1.13,2.14.11,3.37-.11,5.18v.31c.01,11.69,10.13,24.19,18.02,24.19Z"/>
  <path d="M443.25,110.06c0-1.47-1.24-3.94-3.6-7.09-3.72-5.18-7.21-7.43-11.14-7.43-3.09.09-6.08,1.14-8.56,3l-2.7,1.23s-3.15,3.27-4.95,3.27-2.48-1-2.48-1.92v-.45l.34-4.39c.11-1.23-4.73-1.8-4.73-1.8l-.9,1.8-1,1.24.22,3.6-.9,4.17.56,19.47-.78,6.19.45,3.94-.45,5.18s1.8,2.81,3.49,2.81c3,0,4.05-4,4.05-6.52,0-4.73-1.35-4.17-1.35-9.8,0-2.47.34-6.3,1.35-8.1,1.24-2,2.7-5.18,2.7-5.18l4.05-3.15,1.8-2.25s5.07-3.94,9.35-3.94c6.41,0,8.21,8.1,8.21,9.34v9.46l-.67,6.07.56,3.49-.23,3.49v.21c0,2.36,4.28,2.47,4.28,2.47l1.47-1.69,2-1.8s-.34-3.26-.34-5.29v-.69l.34-5.29.34-7-.79-4v-2.65Z"/>
  <path d="M69.78,118.62c-.26-1.6-.4-3.21-.42-4.83-.18-5.57-.85-11.12-2-16.57-1.21-5.7-4.91-16.47-5-16.58l-.07-.32c0-.14-1.17-13.92-2.13-18.43-2-9.42-3.92-16-5.47-21.22-1-3.24-1.7-5.8-2.18-8.08-.1-.66-.14-1.33-.13-2,.01-1.64-.11-3.27-.38-4.89-.14-.98-.52-1.91-1.11-2.7-.5-.56-1.29-.76-2-.51-3.74.8-3.15,13.5-.7,25.05v.17l1.81,9.06,2.27,5.68c1.04,1.96,1.85,4.04,2.41,6.19.08.41.14.82.16,1.24.01.29.04.58.1.86.77,3.63-.91,5.68-2.92,6.11-.61.1-1.23.07-1.82-.09l-6.57-1-7.68,1.63c-7.94,1.69-12,4.58-17.65,10-3.54,3.49-7.64,10.66-7.68,10.73l-.11.17-3.07,3.86-1.84,9.12c.09,3.95.41,7.9.94,11.82,3,14.18,16.61,23.35,30.32,20.44,6.62-1.41,12.26-4.67,16-6.83,1.36-.91,2.84-1.64,4.39-2.17.2-.03.39-.03.59,0,1.87.16,4.06,2.7,5.64,4.92l.15.28,3.13,8c.55,1.48,2.83,1.84,4.32,1.55.45-.76.72-1.6.79-2.48v-.29l2.17-3.57-1-7-3.26-17.32ZM58.43,102.21l-.06.19-1.75,4.41.41,3.6-1.69,6.5c.08,2.67-.77,5.29-2.42,7.4-5.08,7.55-11.05,9.7-16.74,10.91-1.95.42-3.96.56-5.95.4-2.94-.24-5.77-1.22-8.23-2.84-4.08-2.82-6.89-7.13-7.83-12-1.37-6.44.35-13.93,4.71-20.55s11-11.46,17.93-12.94c3.47-.53,6.96-.85,10.47-.94h.56l5,5c1.07.52,5,2.58,5.8,5.37l.09.42c.2,1.69.1,3.41-.3,5.07Z"/>
  <path d="M118.22,87.53c4.14-1.05,8.36-1.76,12.61-2.15,5.42-.65,11-1.33,15.85-2.8h0c2.46-.78,4.46-2.61,5.44-5,1.08-2.55,1.23-5.41.42-8.06-2.62-8.64-6.54-15.26-11.35-19.14-4.42-3.78-10.48-4.97-16-3.16l-8.07,3.34-3.12,2.74c-2.51,1.76-4.79,3.81-6.8,6.12-3.56,4.6-8,14.17-8.81,16,.12,3.43.46,6.85,1,10.24l2.78,10.55c.05,2.74.39,5.47,1,8.14.65,2.17,3.2,5.14,4.24,6.23l13.07,8.88,1.94,2.16,6.58,1.65c.17,0,12.46,3.56,19.56,1.41.76-.39,1.47-.88,2.1-1.45l.7-2.49.89-1.67-1.62-4.35-3.16-1.33-2.42-1.29-4.28.91h-6.3c-.61-.1-15-2.7-22.57-9.06-1.5-1.09-2.63-2.62-3.21-4.38-.73-2.39-.24-4.99,1.31-6.95,1.68-2.2,4.51-3.96,8.22-5.09ZM113.88,63l.22-.27,4.9-1.88,3.14-4,.29-.13c.86-.39,1.75-.73,2.65-1,1.58-.55,3.25-.79,4.92-.72,6.95.35,11.57,3.13,13,7.82,2,6.48-.88,8.47-9.51,12.52l-4.7,2-5.45-.09c-.34,0-.68.05-1,.18-.78.28-1.51.69-2.16,1.19-.73.56-1.55,1-2.42,1.3-.4.13-.81.2-1.23.2-.57-.01-1.13-.12-1.66-.33-2.88-1-5.18-3.17-5.86-5.39-1.16-3.82,3.85-10.18,4.87-11.4Z"/>
  <path d="M274.86,73.6v-.18s-.25-4-2.12-4c-1.32,0-3.36,1.73-4,3.42l-2,5.8-1.82,5.45c-1.17,3.17-1.75,8.73-1.75,16.57,0,10.93,1.19,22.4,1.2,22.52l.62,13.22c-.07,1.95-.34,3.89-.81,5.79-.19.78-.33,1.56-.41,2.36,0,5.79,1.16,6.77,3.74,6.77,2.35,0,4.85-2.87,5.8-6.69l.94-3.94c-.98-4.45-1.58-8.98-1.79-13.53,0-5,2-12.19,2.07-12.49l1-4.41-1.21-23.21,1.59-10.35-1.05-3.1Z"/>
  <path d="M267,42.12c3-.18,7.21-4.9,7.21-12.23,0-4-1.57-5.11-4.12-5.57l-3.36-.32-2.37,3.59-4.56,4.56-.8,4.76,2.22,3.71c.45.9,2.41,1.5,4.89,1.5h.89Z"/>
</svg>